<svg 
 xmlns="http://www.w3.org/2000/svg"
 xmlns:xlink="http://www.w3.org/1999/xlink"
 width="15px" height="12px">
<path fill-rule="evenodd"  fill="rgb(249, 193, 44)"
 d="M14.626,1.826 C14.109,2.056 13.553,2.211 12.969,2.280 C13.565,1.923 14.023,1.358 14.238,0.684 C13.680,1.015 13.063,1.255 12.406,1.384 C11.879,0.824 11.130,0.473 10.300,0.473 C8.706,0.473 7.414,1.765 7.414,3.358 C7.414,3.584 7.440,3.805 7.489,4.016 C5.091,3.895 2.965,2.747 1.542,1.001 C1.294,1.427 1.152,1.923 1.152,2.452 C1.152,3.453 1.661,4.336 2.435,4.853 C1.962,4.838 1.517,4.708 1.128,4.492 C1.128,4.504 1.128,4.516 1.128,4.529 C1.128,5.927 2.123,7.093 3.443,7.358 C3.200,7.424 2.945,7.459 2.682,7.459 C2.496,7.459 2.316,7.441 2.140,7.407 C2.507,8.553 3.572,9.388 4.835,9.411 C3.847,10.185 2.603,10.646 1.251,10.646 C1.019,10.646 0.789,10.632 0.563,10.606 C1.840,11.424 3.357,11.902 4.986,11.902 C10.293,11.902 13.195,7.506 13.195,3.693 C13.195,3.568 13.192,3.443 13.187,3.320 C13.750,2.913 14.240,2.405 14.626,1.826 Z"/>
</svg>